<svg preserveAspectRatio="none" overflow="visible" style="display: block;" width="15.9933" height="15.9933" viewBox="0 0 15.9933 15.9933" fill="none" xmlns="http://www.w3.org/2000/svg">
<g id="Icon" clip-path="url(#clip0_0_64)">
<path id="Vector" d="M14.6606 11.2753V13.2745C14.6613 13.4601 14.6233 13.6438 14.5489 13.8138C14.4746 13.9839 14.3655 14.1365 14.2288 14.262C14.092 14.3874 13.9306 14.483 13.7548 14.5424C13.579 14.6019 13.3927 14.624 13.2078 14.6072C11.1572 14.3844 9.18751 13.6837 7.45689 12.5614C5.84678 11.5383 4.48169 10.1732 3.45856 8.5631C2.33235 6.82463 1.63148 4.84531 1.41274 2.78551C1.39609 2.60123 1.41799 2.4155 1.47705 2.24015C1.53611 2.0648 1.63103 1.90367 1.75578 1.76701C1.88052 1.63036 2.03236 1.52117 2.20161 1.44641C2.37086 1.37165 2.55383 1.33295 2.73886 1.33278H4.73803C5.06143 1.3296 5.37496 1.44412 5.62017 1.655C5.86538 1.86588 6.02554 2.15873 6.0708 2.47897C6.15518 3.11875 6.31167 3.74692 6.53728 4.35152C6.62694 4.59004 6.64634 4.84926 6.59319 5.09846C6.54004 5.34767 6.41657 5.57642 6.2374 5.7576L5.39109 6.60392C6.33973 8.27225 7.72109 9.65361 9.38942 10.6023L10.2357 9.75594C10.4169 9.57677 10.6457 9.45329 10.8949 9.40015C11.1441 9.347 11.4033 9.3664 11.6418 9.45606C12.2464 9.68167 12.8746 9.83815 13.5144 9.92253C13.8381 9.9682 14.1337 10.1313 14.345 10.3807C14.5564 10.6301 14.6687 10.9485 14.6606 11.2753Z" stroke="white" stroke-width="1.33278" stroke-linecap="round" stroke-linejoin="round"/>
</g>
<defs>
<clipPath id="clip0_0_64">
<rect width="15.9933" height="15.9933" fill="white"/>
</clipPath>
</defs>
</svg>
